<?xml version="1.0" encoding="UTF-8"?><svg id="_レイヤー_2" xmlns="http://www.w3.org/2000/svg" viewBox="0 0 558.08 45"><defs><style>.cls-1{fill:#ff9800;}</style></defs><g id="_レイヤー_2-2"><path class="cls-1" d="m38.5,3H4.5c-.83,0-1.5-.67-1.5-1.5s.67-1.5,1.5-1.5h34c.83,0,1.5.67,1.5,1.5s-.67,1.5-1.5,1.5Z"/><path class="cls-1" d="m1.5,17c-.83,0-1.5-.67-1.5-1.5V7.5c0-.83.67-1.5,1.5-1.5s1.5.67,1.5,1.5v8c0,.83-.67,1.5-1.5,1.5Z"/><path class="cls-1" d="m1.5,31c-.83,0-1.5-.67-1.5-1.5v-8c0-.83.67-1.5,1.5-1.5s1.5.67,1.5,1.5v8c0,.83-.67,1.5-1.5,1.5Z"/><path class="cls-1" d="m1.5,45c-.83,0-1.5-.67-1.5-1.5v-8c0-.83.67-1.5,1.5-1.5s1.5.67,1.5,1.5v8c0,.83-.67,1.5-1.5,1.5Z"/><path class="cls-1" d="m9,45h-3c-.83,0-1.5-.67-1.5-1.5s.67-1.5,1.5-1.5h3c.83,0,1.5.67,1.5,1.5s-.67,1.5-1.5,1.5Z"/><path class="cls-1" d="m24,31h-5c-.83,0-1.5-.67-1.5-1.5s.67-1.5,1.5-1.5h5c.83,0,1.5.67,1.5,1.5s-.67,1.5-1.5,1.5Z"/><path class="cls-1" d="m13.5,17c-.83,0-1.5-.67-1.5-1.5V7.5c0-.83.67-1.5,1.5-1.5s1.5.67,1.5,1.5v8c0,.83-.67,1.5-1.5,1.5Z"/><path class="cls-1" d="m13.5,31c-.83,0-1.5-.67-1.5-1.5v-8c0-.83.67-1.5,1.5-1.5s1.5.67,1.5,1.5v8c0,.83-.67,1.5-1.5,1.5Z"/><path class="cls-1" d="m13.5,45c-.83,0-1.5-.67-1.5-1.5v-8c0-.83.67-1.5,1.5-1.5s1.5.67,1.5,1.5v8c0,.83-.67,1.5-1.5,1.5Z"/><path class="cls-1" d="m29.5,17c-.83,0-1.5-.67-1.5-1.5V7.5c0-.83.67-1.5,1.5-1.5s1.5.67,1.5,1.5v8c0,.83-.67,1.5-1.5,1.5Z"/><path class="cls-1" d="m29.5,31c-.83,0-1.5-.67-1.5-1.5v-8c0-.83.67-1.5,1.5-1.5s1.5.67,1.5,1.5v8c0,.83-.67,1.5-1.5,1.5Z"/><path class="cls-1" d="m29.5,45c-.83,0-1.5-.67-1.5-1.5v-8c0-.83.67-1.5,1.5-1.5s1.5.67,1.5,1.5v8c0,.83-.67,1.5-1.5,1.5Z"/><path class="cls-1" d="m37,45h-3c-.83,0-1.5-.67-1.5-1.5s.67-1.5,1.5-1.5h3c.83,0,1.5.67,1.5,1.5s-.67,1.5-1.5,1.5Z"/><path class="cls-1" d="m41.5,17c-.83,0-1.5-.67-1.5-1.5V7.5c0-.83.67-1.5,1.5-1.5s1.5.67,1.5,1.5v8c0,.83-.67,1.5-1.5,1.5Z"/><path class="cls-1" d="m41.5,31c-.83,0-1.5-.67-1.5-1.5v-8c0-.83.67-1.5,1.5-1.5s1.5.67,1.5,1.5v8c0,.83-.67,1.5-1.5,1.5Z"/><path class="cls-1" d="m41.5,45c-.83,0-1.5-.67-1.5-1.5v-8c0-.83.67-1.5,1.5-1.5s1.5.67,1.5,1.5v8c0,.83-.67,1.5-1.5,1.5Z"/><path class="cls-1" d="m90.5,3h-34c-.83,0-1.5-.67-1.5-1.5s.67-1.5,1.5-1.5h34c.83,0,1.5.67,1.5,1.5s-.67,1.5-1.5,1.5Z"/><path class="cls-1" d="m53.5,17c-.83,0-1.5-.67-1.5-1.5V7.5c0-.83.67-1.5,1.5-1.5s1.5.67,1.5,1.5v8c0,.83-.67,1.5-1.5,1.5Z"/><path class="cls-1" d="m53.5,31c-.83,0-1.5-.67-1.5-1.5v-8c0-.83.67-1.5,1.5-1.5s1.5.67,1.5,1.5v8c0,.83-.67,1.5-1.5,1.5Z"/><path class="cls-1" d="m53.5,45c-.83,0-1.5-.67-1.5-1.5v-8c0-.83.67-1.5,1.5-1.5s1.5.67,1.5,1.5v8c0,.83-.67,1.5-1.5,1.5Z"/><path class="cls-1" d="m61,45h-3c-.83,0-1.5-.67-1.5-1.5s.67-1.5,1.5-1.5h3c.83,0,1.5.67,1.5,1.5s-.67,1.5-1.5,1.5Z"/><path class="cls-1" d="m76,31h-5c-.83,0-1.5-.67-1.5-1.5s.67-1.5,1.5-1.5h5c.83,0,1.5.67,1.5,1.5s-.67,1.5-1.5,1.5Z"/><path class="cls-1" d="m65.5,17c-.83,0-1.5-.67-1.5-1.5V7.5c0-.83.67-1.5,1.5-1.5s1.5.67,1.5,1.5v8c0,.83-.67,1.5-1.5,1.5Z"/><path class="cls-1" d="m65.5,31c-.83,0-1.5-.67-1.5-1.5v-8c0-.83.67-1.5,1.5-1.5s1.5.67,1.5,1.5v8c0,.83-.67,1.5-1.5,1.5Z"/><path class="cls-1" d="m65.5,45c-.83,0-1.5-.67-1.5-1.5v-8c0-.83.67-1.5,1.5-1.5s1.5.67,1.5,1.5v8c0,.83-.67,1.5-1.5,1.5Z"/><path class="cls-1" d="m81.5,17c-.83,0-1.5-.67-1.5-1.5V7.5c0-.83.67-1.5,1.5-1.5s1.5.67,1.5,1.5v8c0,.83-.67,1.5-1.5,1.5Z"/><path class="cls-1" d="m81.5,31c-.83,0-1.5-.67-1.5-1.5v-8c0-.83.67-1.5,1.5-1.5s1.5.67,1.5,1.5v8c0,.83-.67,1.5-1.5,1.5Z"/><path class="cls-1" d="m81.5,45c-.83,0-1.5-.67-1.5-1.5v-8c0-.83.67-1.5,1.5-1.5s1.5.67,1.5,1.5v8c0,.83-.67,1.5-1.5,1.5Z"/><path class="cls-1" d="m89,45h-3c-.83,0-1.5-.67-1.5-1.5s.67-1.5,1.5-1.5h3c.83,0,1.5.67,1.5,1.5s-.67,1.5-1.5,1.5Z"/><path class="cls-1" d="m93.5,17c-.83,0-1.5-.67-1.5-1.5V7.5c0-.83.67-1.5,1.5-1.5s1.5.67,1.5,1.5v8c0,.83-.67,1.5-1.5,1.5Z"/><path class="cls-1" d="m93.5,31c-.83,0-1.5-.67-1.5-1.5v-8c0-.83.67-1.5,1.5-1.5s1.5.67,1.5,1.5v8c0,.83-.67,1.5-1.5,1.5Z"/><path class="cls-1" d="m93.5,45c-.83,0-1.5-.67-1.5-1.5v-8c0-.83.67-1.5,1.5-1.5s1.5.67,1.5,1.5v8c0,.83-.67,1.5-1.5,1.5Z"/><path class="cls-1" d="m251.55,3h-34c-.83,0-1.5-.67-1.5-1.5s.67-1.5,1.5-1.5h34c.83,0,1.5.67,1.5,1.5s-.67,1.5-1.5,1.5Z"/><path class="cls-1" d="m214.51,17c-.83,0-1.5-.67-1.5-1.5V7.5c0-.83.67-1.5,1.5-1.5s1.5.67,1.5,1.5v8c0,.83-.67,1.5-1.5,1.5Z"/><path class="cls-1" d="m214.51,31c-.83,0-1.5-.67-1.5-1.5v-8c0-.83.67-1.5,1.5-1.5s1.5.67,1.5,1.5v8c0,.83-.67,1.5-1.5,1.5Z"/><path class="cls-1" d="m214.51,45c-.83,0-1.5-.67-1.5-1.5v-8c0-.83.67-1.5,1.5-1.5s1.5.67,1.5,1.5v8c0,.83-.67,1.5-1.5,1.5Z"/><path class="cls-1" d="m222.01,45h-3c-.83,0-1.5-.67-1.5-1.5s.67-1.5,1.5-1.5h3c.83,0,1.5.67,1.5,1.5s-.67,1.5-1.5,1.5Z"/><path class="cls-1" d="m226.51,17c-.83,0-1.5-.67-1.5-1.5V7.5c0-.83.67-1.5,1.5-1.5s1.5.67,1.5,1.5v8c0,.83-.67,1.5-1.5,1.5Z"/><path class="cls-1" d="m226.51,31c-.83,0-1.5-.67-1.5-1.5v-8c0-.83.67-1.5,1.5-1.5s1.5.67,1.5,1.5v8c0,.83-.67,1.5-1.5,1.5Z"/><path class="cls-1" d="m226.51,45c-.83,0-1.5-.67-1.5-1.5v-8c0-.83.67-1.5,1.5-1.5s1.5.67,1.5,1.5v8c0,.83-.67,1.5-1.5,1.5Z"/><path class="cls-1" d="m242.51,31c-.83,0-1.5-.67-1.5-1.5v-8c0-.83.67-1.5,1.5-1.5s1.5.67,1.5,1.5v8c0,.83-.67,1.5-1.5,1.5Z"/><path class="cls-1" d="m242.51,45c-.83,0-1.5-.67-1.5-1.5v-8c0-.83.67-1.5,1.5-1.5s1.5.67,1.5,1.5v8c0,.83-.67,1.5-1.5,1.5Z"/><path class="cls-1" d="m250.01,45h-3c-.83,0-1.5-.67-1.5-1.5s.67-1.5,1.5-1.5h3c.83,0,1.5.67,1.5,1.5s-.67,1.5-1.5,1.5Z"/><path class="cls-1" d="m242.54,16.52c-.58,0-1.14-.34-1.38-.92l-3.11-7.37c-.32-.76.04-1.64.8-1.97.76-.32,1.64.04,1.97.8l3.11,7.37c.32.76-.04,1.64-.8,1.97-.19.08-.39.12-.58.12Z"/><path class="cls-1" d="m254.59,15.85c-.58,0-1.14-.34-1.38-.92l-3.11-7.37c-.32-.76.04-1.64.8-1.97.76-.32,1.64.04,1.97.8l3.11,7.37c.32.76-.04,1.64-.8,1.97-.19.08-.39.12-.58.12Z"/><path class="cls-1" d="m254.51,31c-.83,0-1.5-.67-1.5-1.5v-8c0-.83.67-1.5,1.5-1.5s1.5.67,1.5,1.5v8c0,.83-.67,1.5-1.5,1.5Z"/><path class="cls-1" d="m254.51,45c-.83,0-1.5-.67-1.5-1.5v-8c0-.83.67-1.5,1.5-1.5s1.5.67,1.5,1.5v8c0,.83-.67,1.5-1.5,1.5Z"/><path class="cls-1" d="m153.5,3h-34c-.83,0-1.5-.67-1.5-1.5s.67-1.5,1.5-1.5h34c.83,0,1.5.67,1.5,1.5s-.67,1.5-1.5,1.5Z"/><path class="cls-1" d="m157.5,17h-21c-.83,0-1.5-.67-1.5-1.5s.67-1.5,1.5-1.5h21c.83,0,1.5.67,1.5,1.5s-.67,1.5-1.5,1.5Z"/><path class="cls-1" d="m115.5,17c-.83,0-1.5-.67-1.5-1.5V7.5c0-.83.67-1.5,1.5-1.5s1.5.67,1.5,1.5v8c0,.83-.67,1.5-1.5,1.5Z"/><path class="cls-1" d="m115.5,31c-.83,0-1.5-.67-1.5-1.5v-8c0-.83.67-1.5,1.5-1.5s1.5.67,1.5,1.5v8c0,.83-.67,1.5-1.5,1.5Z"/><path class="cls-1" d="m115.5,45c-.83,0-1.5-.67-1.5-1.5v-8c0-.83.67-1.5,1.5-1.5s1.5.67,1.5,1.5v8c0,.83-.67,1.5-1.5,1.5Z"/><path class="cls-1" d="m123,45h-3c-.83,0-1.5-.67-1.5-1.5s.67-1.5,1.5-1.5h3c.83,0,1.5.67,1.5,1.5s-.67,1.5-1.5,1.5Z"/><path class="cls-1" d="m138,31h-5c-.83,0-1.5-.67-1.5-1.5s.67-1.5,1.5-1.5h5c.83,0,1.5.67,1.5,1.5s-.67,1.5-1.5,1.5Z"/><path class="cls-1" d="m138.5,45h-5c-.83,0-1.5-.67-1.5-1.5s.67-1.5,1.5-1.5h5c.83,0,1.5.67,1.5,1.5s-.67,1.5-1.5,1.5Z"/><path class="cls-1" d="m127.5,17c-.83,0-1.5-.67-1.5-1.5V7.5c0-.83.67-1.5,1.5-1.5s1.5.67,1.5,1.5v8c0,.83-.67,1.5-1.5,1.5Z"/><path class="cls-1" d="m127.5,31c-.83,0-1.5-.67-1.5-1.5v-8c0-.83.67-1.5,1.5-1.5s1.5.67,1.5,1.5v8c0,.83-.67,1.5-1.5,1.5Z"/><path class="cls-1" d="m127.5,45c-.83,0-1.5-.67-1.5-1.5v-8c0-.83.67-1.5,1.5-1.5s1.5.67,1.5,1.5v8c0,.83-.67,1.5-1.5,1.5Z"/><path class="cls-1" d="m143.5,31c-.83,0-1.5-.67-1.5-1.5v-8c0-.83.67-1.5,1.5-1.5s1.5.67,1.5,1.5v8c0,.83-.67,1.5-1.5,1.5Z"/><path class="cls-1" d="m143.5,45c-.83,0-1.5-.67-1.5-1.5v-8c0-.83.67-1.5,1.5-1.5s1.5.67,1.5,1.5v8c0,.83-.67,1.5-1.5,1.5Z"/><path class="cls-1" d="m151,45h-3c-.83,0-1.5-.67-1.5-1.5s.67-1.5,1.5-1.5h3c.83,0,1.5.67,1.5,1.5s-.67,1.5-1.5,1.5Z"/><path class="cls-1" d="m155.5,31c-.83,0-1.5-.67-1.5-1.5v-8c0-.83.67-1.5,1.5-1.5s1.5.67,1.5,1.5v8c0,.83-.67,1.5-1.5,1.5Z"/><path class="cls-1" d="m155.5,45c-.83,0-1.5-.67-1.5-1.5v-8c0-.83.67-1.5,1.5-1.5s1.5.67,1.5,1.5v8c0,.83-.67,1.5-1.5,1.5Z"/><path class="cls-1" d="m203,3h-34c-.83,0-1.5-.67-1.5-1.5s.67-1.5,1.5-1.5h34c.83,0,1.5.67,1.5,1.5s-.67,1.5-1.5,1.5Z"/><path class="cls-1" d="m204.5,45h-20c-.83,0-1.5-.67-1.5-1.5s.67-1.5,1.5-1.5h20c.83,0,1.5.67,1.5,1.5s-.67,1.5-1.5,1.5Z"/><path class="cls-1" d="m167.5,17c-.83,0-1.5-.67-1.5-1.5V7.5c0-.83.67-1.5,1.5-1.5s1.5.67,1.5,1.5v8c0,.83-.67,1.5-1.5,1.5Z"/><path class="cls-1" d="m167.5,31c-.83,0-1.5-.67-1.5-1.5v-8c0-.83.67-1.5,1.5-1.5s1.5.67,1.5,1.5v8c0,.83-.67,1.5-1.5,1.5Z"/><path class="cls-1" d="m167.5,45c-.83,0-1.5-.67-1.5-1.5v-8c0-.83.67-1.5,1.5-1.5s1.5.67,1.5,1.5v8c0,.83-.67,1.5-1.5,1.5Z"/><path class="cls-1" d="m175,45h-3c-.83,0-1.5-.67-1.5-1.5s.67-1.5,1.5-1.5h3c.83,0,1.5.67,1.5,1.5s-.67,1.5-1.5,1.5Z"/><path class="cls-1" d="m204.5,27h-3c-.83,0-1.5-.67-1.5-1.5s.67-1.5,1.5-1.5h3c.83,0,1.5.67,1.5,1.5s-.67,1.5-1.5,1.5Z"/><path class="cls-1" d="m187.5,27h-3c-.83,0-1.5-.67-1.5-1.5s.67-1.5,1.5-1.5h3c.83,0,1.5.67,1.5,1.5s-.67,1.5-1.5,1.5Z"/><path class="cls-1" d="m196,27h-3c-.83,0-1.5-.67-1.5-1.5s.67-1.5,1.5-1.5h3c.83,0,1.5.67,1.5,1.5s-.67,1.5-1.5,1.5Z"/><path class="cls-1" d="m179.5,17c-.83,0-1.5-.67-1.5-1.5V7.5c0-.83.67-1.5,1.5-1.5s1.5.67,1.5,1.5v8c0,.83-.67,1.5-1.5,1.5Z"/><path class="cls-1" d="m179.5,31c-.83,0-1.5-.67-1.5-1.5v-8c0-.83.67-1.5,1.5-1.5s1.5.67,1.5,1.5v8c0,.83-.67,1.5-1.5,1.5Z"/><path class="cls-1" d="m179.5,45c-.83,0-1.5-.67-1.5-1.5v-8c0-.83.67-1.5,1.5-1.5s1.5.67,1.5,1.5v8c0,.83-.67,1.5-1.5,1.5Z"/><path class="cls-1" d="m300.1,3h-34c-.83,0-1.5-.67-1.5-1.5s.67-1.5,1.5-1.5h34c.83,0,1.5.67,1.5,1.5s-.67,1.5-1.5,1.5Z"/><path class="cls-1" d="m301.6,45h-20c-.83,0-1.5-.67-1.5-1.5s.67-1.5,1.5-1.5h20c.83,0,1.5.67,1.5,1.5s-.67,1.5-1.5,1.5Z"/><path class="cls-1" d="m264.6,17c-.83,0-1.5-.67-1.5-1.5V7.5c0-.83.67-1.5,1.5-1.5s1.5.67,1.5,1.5v8c0,.83-.67,1.5-1.5,1.5Z"/><path class="cls-1" d="m264.6,31c-.83,0-1.5-.67-1.5-1.5v-8c0-.83.67-1.5,1.5-1.5s1.5.67,1.5,1.5v8c0,.83-.67,1.5-1.5,1.5Z"/><path class="cls-1" d="m264.6,45c-.83,0-1.5-.67-1.5-1.5v-8c0-.83.67-1.5,1.5-1.5s1.5.67,1.5,1.5v8c0,.83-.67,1.5-1.5,1.5Z"/><path class="cls-1" d="m272.1,45h-3c-.83,0-1.5-.67-1.5-1.5s.67-1.5,1.5-1.5h3c.83,0,1.5.67,1.5,1.5s-.67,1.5-1.5,1.5Z"/><path class="cls-1" d="m301.6,27h-3c-.83,0-1.5-.67-1.5-1.5s.67-1.5,1.5-1.5h3c.83,0,1.5.67,1.5,1.5s-.67,1.5-1.5,1.5Z"/><path class="cls-1" d="m284.6,27h-3c-.83,0-1.5-.67-1.5-1.5s.67-1.5,1.5-1.5h3c.83,0,1.5.67,1.5,1.5s-.67,1.5-1.5,1.5Z"/><path class="cls-1" d="m293.1,27h-3c-.83,0-1.5-.67-1.5-1.5s.67-1.5,1.5-1.5h3c.83,0,1.5.67,1.5,1.5s-.67,1.5-1.5,1.5Z"/><path class="cls-1" d="m276.6,17c-.83,0-1.5-.67-1.5-1.5V7.5c0-.83.67-1.5,1.5-1.5s1.5.67,1.5,1.5v8c0,.83-.67,1.5-1.5,1.5Z"/><path class="cls-1" d="m276.6,31c-.83,0-1.5-.67-1.5-1.5v-8c0-.83.67-1.5,1.5-1.5s1.5.67,1.5,1.5v8c0,.83-.67,1.5-1.5,1.5Z"/><path class="cls-1" d="m276.6,45c-.83,0-1.5-.67-1.5-1.5v-8c0-.83.67-1.5,1.5-1.5s1.5.67,1.5,1.5v8c0,.83-.67,1.5-1.5,1.5Z"/><path class="cls-1" d="m347.6,3h-34c-.83,0-1.5-.67-1.5-1.5s.67-1.5,1.5-1.5h34c.83,0,1.5.67,1.5,1.5s-.67,1.5-1.5,1.5Z"/><path class="cls-1" d="m311.6,17c-.83,0-1.5-.67-1.5-1.5V7.5c0-.83.67-1.5,1.5-1.5s1.5.67,1.5,1.5v8c0,.83-.67,1.5-1.5,1.5Z"/><path class="cls-1" d="m311.6,31c-.83,0-1.5-.67-1.5-1.5v-8c0-.83.67-1.5,1.5-1.5s1.5.67,1.5,1.5v8c0,.83-.67,1.5-1.5,1.5Z"/><path class="cls-1" d="m311.6,45c-.83,0-1.5-.67-1.5-1.5v-8c0-.83.67-1.5,1.5-1.5s1.5.67,1.5,1.5v8c0,.83-.67,1.5-1.5,1.5Z"/><path class="cls-1" d="m319.1,45h-3c-.83,0-1.5-.67-1.5-1.5s.67-1.5,1.5-1.5h3c.83,0,1.5.67,1.5,1.5s-.67,1.5-1.5,1.5Z"/><path class="cls-1" d="m323.6,17c-.83,0-1.5-.67-1.5-1.5V7.5c0-.83.67-1.5,1.5-1.5s1.5.67,1.5,1.5v8c0,.83-.67,1.5-1.5,1.5Z"/><path class="cls-1" d="m323.6,31c-.83,0-1.5-.67-1.5-1.5v-8c0-.83.67-1.5,1.5-1.5s1.5.67,1.5,1.5v8c0,.83-.67,1.5-1.5,1.5Z"/><path class="cls-1" d="m323.6,45c-.83,0-1.5-.67-1.5-1.5v-8c0-.83.67-1.5,1.5-1.5s1.5.67,1.5,1.5v8c0,.83-.67,1.5-1.5,1.5Z"/><path class="cls-1" d="m339.6,31c-.83,0-1.5-.67-1.5-1.5v-8c0-.83.67-1.5,1.5-1.5s1.5.67,1.5,1.5v8c0,.83-.67,1.5-1.5,1.5Z"/><path class="cls-1" d="m339.6,17c-.83,0-1.5-.67-1.5-1.5V7.5c0-.83.67-1.5,1.5-1.5s1.5.67,1.5,1.5v8c0,.83-.67,1.5-1.5,1.5Z"/><path class="cls-1" d="m349.6,45h-3c-.83,0-1.5-.67-1.5-1.5s.67-1.5,1.5-1.5h3c.83,0,1.5.67,1.5,1.5s-.67,1.5-1.5,1.5Z"/><path class="cls-1" d="m351.69,15.85c-.59,0-1.14-.34-1.38-.92l-3.11-7.37c-.32-.76.04-1.64.8-1.97.77-.32,1.64.04,1.96.8l3.11,7.37c.32.76-.04,1.64-.8,1.97-.19.08-.39.12-.58.12Z"/><path class="cls-1" d="m342.63,44.52c-.59,0-1.14-.34-1.38-.92l-3.11-7.37c-.32-.76.04-1.64.8-1.96.76-.32,1.64.04,1.96.8l3.11,7.37c.32.76-.04,1.64-.8,1.96-.19.08-.39.12-.58.12Z"/><path class="cls-1" d="m354.69,43.85c-.59,0-1.14-.34-1.38-.92l-3.11-7.37c-.32-.76.04-1.64.8-1.96.76-.32,1.64.04,1.96.8l3.11,7.37c.32.76-.04,1.64-.8,1.96-.19.08-.39.12-.58.12Z"/><path class="cls-1" d="m351.6,31c-.83,0-1.5-.67-1.5-1.5v-8c0-.83.67-1.5,1.5-1.5s1.5.67,1.5,1.5v8c0,.83-.67,1.5-1.5,1.5Z"/><path class="cls-1" d="m334.6,31h-5c-.83,0-1.5-.67-1.5-1.5s.67-1.5,1.5-1.5h5c.83,0,1.5.67,1.5,1.5s-.67,1.5-1.5,1.5Z"/><path class="cls-1" d="m548.5,3h-34c-.83,0-1.5-.67-1.5-1.5s.67-1.5,1.5-1.5h34c.83,0,1.5.67,1.5,1.5s-.67,1.5-1.5,1.5Z"/><path class="cls-1" d="m513.5,17c-.83,0-1.5-.67-1.5-1.5V7.5c0-.83.67-1.5,1.5-1.5s1.5.67,1.5,1.5v8c0,.83-.67,1.5-1.5,1.5Z"/><path class="cls-1" d="m513.5,31c-.83,0-1.5-.67-1.5-1.5v-8c0-.83.67-1.5,1.5-1.5s1.5.67,1.5,1.5v8c0,.83-.67,1.5-1.5,1.5Z"/><path class="cls-1" d="m513.5,45c-.83,0-1.5-.67-1.5-1.5v-8c0-.83.67-1.5,1.5-1.5s1.5.67,1.5,1.5v8c0,.83-.67,1.5-1.5,1.5Z"/><path class="cls-1" d="m521,45h-3c-.83,0-1.5-.67-1.5-1.5s.67-1.5,1.5-1.5h3c.83,0,1.5.67,1.5,1.5s-.67,1.5-1.5,1.5Z"/><path class="cls-1" d="m525.5,17c-.83,0-1.5-.67-1.5-1.5V7.5c0-.83.67-1.5,1.5-1.5s1.5.67,1.5,1.5v8c0,.83-.67,1.5-1.5,1.5Z"/><path class="cls-1" d="m525.5,31c-.83,0-1.5-.67-1.5-1.5v-8c0-.83.67-1.5,1.5-1.5s1.5.67,1.5,1.5v8c0,.83-.67,1.5-1.5,1.5Z"/><path class="cls-1" d="m525.5,45c-.83,0-1.5-.67-1.5-1.5v-8c0-.83.67-1.5,1.5-1.5s1.5.67,1.5,1.5v8c0,.83-.67,1.5-1.5,1.5Z"/><path class="cls-1" d="m541.5,31c-.83,0-1.5-.67-1.5-1.5v-8c0-.83.67-1.5,1.5-1.5s1.5.67,1.5,1.5v8c0,.83-.67,1.5-1.5,1.5Z"/><path class="cls-1" d="m541.5,17c-.83,0-1.5-.67-1.5-1.5V7.5c0-.83.67-1.5,1.5-1.5s1.5.67,1.5,1.5v8c0,.83-.67,1.5-1.5,1.5Z"/><path class="cls-1" d="m551.5,45h-3c-.83,0-1.5-.67-1.5-1.5s.67-1.5,1.5-1.5h3c.83,0,1.5.67,1.5,1.5s-.67,1.5-1.5,1.5Z"/><path class="cls-1" d="m553.58,15.85c-.58,0-1.14-.34-1.38-.92l-3.11-7.37c-.32-.76.04-1.64.8-1.97.76-.32,1.64.04,1.96.8l3.11,7.37c.32.76-.04,1.64-.8,1.97-.19.08-.39.12-.58.12Z"/><path class="cls-1" d="m544.53,44.52c-.58,0-1.14-.34-1.38-.92l-3.11-7.37c-.32-.76.04-1.64.8-1.96.76-.32,1.64.04,1.96.8l3.11,7.37c.32.76-.04,1.64-.8,1.96-.19.08-.39.12-.58.12Z"/><path class="cls-1" d="m556.58,43.85c-.58,0-1.14-.34-1.38-.92l-3.11-7.37c-.32-.76.04-1.64.8-1.96s1.64.04,1.96.8l3.11,7.37c.32.76-.04,1.64-.8,1.96-.19.08-.39.12-.58.12Z"/><path class="cls-1" d="m553.5,31c-.83,0-1.5-.67-1.5-1.5v-8c0-.83.67-1.5,1.5-1.5s1.5.67,1.5,1.5v8c0,.83-.67,1.5-1.5,1.5Z"/><path class="cls-1" d="m536.5,31h-5c-.83,0-1.5-.67-1.5-1.5s.67-1.5,1.5-1.5h5c.83,0,1.5.67,1.5,1.5s-.67,1.5-1.5,1.5Z"/><path class="cls-1" d="m498.1,3h-34c-.83,0-1.5-.67-1.5-1.5s.67-1.5,1.5-1.5h34c.83,0,1.5.67,1.5,1.5s-.67,1.5-1.5,1.5Z"/><path class="cls-1" d="m483.5,45h-3c-.83,0-1.5-.67-1.5-1.5s.67-1.5,1.5-1.5h3c.83,0,1.5.67,1.5,1.5s-.67,1.5-1.5,1.5Z"/><path class="cls-1" d="m495.82,45h-3c-.83,0-1.5-.67-1.5-1.5s.67-1.5,1.5-1.5h3c.83,0,1.5.67,1.5,1.5s-.67,1.5-1.5,1.5Z"/><path class="cls-1" d="m503.5,31c-.83,0-1.5-.67-1.5-1.5v-8c0-.83.67-1.5,1.5-1.5s1.5.67,1.5,1.5v8c0,.83-.67,1.5-1.5,1.5Z"/><path class="cls-1" d="m470.5,45h-3c-.83,0-1.5-.67-1.5-1.5s.67-1.5,1.5-1.5h3c.83,0,1.5.67,1.5,1.5s-.67,1.5-1.5,1.5Z"/><path class="cls-1" d="m475.67,17c-.83,0-1.5-.67-1.5-1.5V7.5c0-.83.67-1.5,1.5-1.5s1.5.67,1.5,1.5v8c0,.83-.67,1.5-1.5,1.5Z"/><path class="cls-1" d="m475.67,31c-.83,0-1.5-.67-1.5-1.5v-8c0-.83.67-1.5,1.5-1.5s1.5.67,1.5,1.5v8c0,.83-.67,1.5-1.5,1.5Z"/><path class="cls-1" d="m475.67,45c-.83,0-1.5-.67-1.5-1.5v-8c0-.83.67-1.5,1.5-1.5s1.5.67,1.5,1.5v8c0,.83-.67,1.5-1.5,1.5Z"/><path class="cls-1" d="m487.97,31c-.83,0-1.5-.67-1.5-1.5v-8c0-.83.67-1.5,1.5-1.5s1.5.67,1.5,1.5v8c0,.83-.67,1.5-1.5,1.5Z"/><path class="cls-1" d="m487.97,45c-.83,0-1.5-.67-1.5-1.5v-8c0-.83.67-1.5,1.5-1.5s1.5.67,1.5,1.5v8c0,.83-.67,1.5-1.5,1.5Z"/><path class="cls-1" d="m487.97,17c-.83,0-1.5-.67-1.5-1.5V7.5c0-.83.67-1.5,1.5-1.5s1.5.67,1.5,1.5v8c0,.83-.67,1.5-1.5,1.5Z"/><path class="cls-1" d="m503.38,16.69c-.58,0-1.14-.34-1.38-.92l-3.11-7.37c-.32-.76.04-1.64.8-1.96.76-.32,1.64.04,1.96.8l3.11,7.37c.32.76-.04,1.64-.8,1.96-.19.08-.39.12-.58.12Z"/><path class="cls-1" d="m500.26,44.69c-.19,0-.39-.04-.58-.12-.76-.32-1.12-1.2-.8-1.96l3.11-7.37c.32-.76,1.2-1.12,1.96-.8.76.32,1.12,1.2.8,1.96l-3.11,7.37c-.24.57-.8.92-1.38.92Z"/><path class="cls-1" d="m459.62,16.69c-.19,0-.39-.04-.58-.12-.76-.32-1.12-1.2-.8-1.96l3.11-7.37c.32-.76,1.2-1.12,1.96-.8.76.32,1.12,1.2.8,1.96l-3.11,7.37c-.24.57-.8.92-1.38.92Z"/><path class="cls-1" d="m462.73,44.69c-.58,0-1.14-.34-1.38-.92l-3.11-7.37c-.32-.76.04-1.64.8-1.96.76-.32,1.64.04,1.96.8l3.11,7.37c.32.76-.04,1.64-.8,1.96-.19.08-.39.12-.58.12Z"/><path class="cls-1" d="m458.7,31c-.83,0-1.5-.67-1.5-1.5v-8c0-.83.67-1.5,1.5-1.5s1.5.67,1.5,1.5v8c0,.83-.67,1.5-1.5,1.5Z"/><path class="cls-1" d="m401.69,3h-34c-.83,0-1.5-.67-1.5-1.5s.67-1.5,1.5-1.5h34c.83,0,1.5.67,1.5,1.5s-.67,1.5-1.5,1.5Z"/><path class="cls-1" d="m364.69,17c-.83,0-1.5-.67-1.5-1.5V7.5c0-.83.67-1.5,1.5-1.5s1.5.67,1.5,1.5v8c0,.83-.67,1.5-1.5,1.5Z"/><path class="cls-1" d="m364.69,31c-.83,0-1.5-.67-1.5-1.5v-8c0-.83.67-1.5,1.5-1.5s1.5.67,1.5,1.5v8c0,.83-.67,1.5-1.5,1.5Z"/><path class="cls-1" d="m364.69,45c-.83,0-1.5-.67-1.5-1.5v-8c0-.83.67-1.5,1.5-1.5s1.5.67,1.5,1.5v8c0,.83-.67,1.5-1.5,1.5Z"/><path class="cls-1" d="m372.19,45h-3c-.83,0-1.5-.67-1.5-1.5s.67-1.5,1.5-1.5h3c.83,0,1.5.67,1.5,1.5s-.67,1.5-1.5,1.5Z"/><path class="cls-1" d="m387.19,31h-5c-.83,0-1.5-.67-1.5-1.5s.67-1.5,1.5-1.5h5c.83,0,1.5.67,1.5,1.5s-.67,1.5-1.5,1.5Z"/><path class="cls-1" d="m376.69,17c-.83,0-1.5-.67-1.5-1.5V7.5c0-.83.67-1.5,1.5-1.5s1.5.67,1.5,1.5v8c0,.83-.67,1.5-1.5,1.5Z"/><path class="cls-1" d="m376.69,31c-.83,0-1.5-.67-1.5-1.5v-8c0-.83.67-1.5,1.5-1.5s1.5.67,1.5,1.5v8c0,.83-.67,1.5-1.5,1.5Z"/><path class="cls-1" d="m376.69,45c-.83,0-1.5-.67-1.5-1.5v-8c0-.83.67-1.5,1.5-1.5s1.5.67,1.5,1.5v8c0,.83-.67,1.5-1.5,1.5Z"/><path class="cls-1" d="m392.69,17c-.83,0-1.5-.67-1.5-1.5V7.5c0-.83.67-1.5,1.5-1.5s1.5.67,1.5,1.5v8c0,.83-.67,1.5-1.5,1.5Z"/><path class="cls-1" d="m392.69,31c-.83,0-1.5-.67-1.5-1.5v-8c0-.83.67-1.5,1.5-1.5s1.5.67,1.5,1.5v8c0,.83-.67,1.5-1.5,1.5Z"/><path class="cls-1" d="m392.69,45c-.83,0-1.5-.67-1.5-1.5v-8c0-.83.67-1.5,1.5-1.5s1.5.67,1.5,1.5v8c0,.83-.67,1.5-1.5,1.5Z"/><path class="cls-1" d="m400.19,45h-3c-.83,0-1.5-.67-1.5-1.5s.67-1.5,1.5-1.5h3c.83,0,1.5.67,1.5,1.5s-.67,1.5-1.5,1.5Z"/><path class="cls-1" d="m404.69,17c-.83,0-1.5-.67-1.5-1.5V7.5c0-.83.67-1.5,1.5-1.5s1.5.67,1.5,1.5v8c0,.83-.67,1.5-1.5,1.5Z"/><path class="cls-1" d="m404.69,31c-.83,0-1.5-.67-1.5-1.5v-8c0-.83.67-1.5,1.5-1.5s1.5.67,1.5,1.5v8c0,.83-.67,1.5-1.5,1.5Z"/><path class="cls-1" d="m404.69,45c-.83,0-1.5-.67-1.5-1.5v-8c0-.83.67-1.5,1.5-1.5s1.5.67,1.5,1.5v8c0,.83-.67,1.5-1.5,1.5Z"/><path class="cls-1" d="m448.69,3h-34c-.83,0-1.5-.67-1.5-1.5s.67-1.5,1.5-1.5h34c.83,0,1.5.67,1.5,1.5s-.67,1.5-1.5,1.5Z"/><path class="cls-1" d="m425.69,17c-.83,0-1.5-.67-1.5-1.5V7.5c0-.83.67-1.5,1.5-1.5s1.5.67,1.5,1.5v8c0,.83-.67,1.5-1.5,1.5Z"/><path class="cls-1" d="m425.69,31c-.83,0-1.5-.67-1.5-1.5v-8c0-.83.67-1.5,1.5-1.5s1.5.67,1.5,1.5v8c0,.83-.67,1.5-1.5,1.5Z"/><path class="cls-1" d="m425.69,45c-.83,0-1.5-.67-1.5-1.5v-8c0-.83.67-1.5,1.5-1.5s1.5.67,1.5,1.5v8c0,.83-.67,1.5-1.5,1.5Z"/><path class="cls-1" d="m433.19,45h-3c-.83,0-1.5-.67-1.5-1.5s.67-1.5,1.5-1.5h3c.83,0,1.5.67,1.5,1.5s-.67,1.5-1.5,1.5Z"/><path class="cls-1" d="m437.69,17c-.83,0-1.5-.67-1.5-1.5V7.5c0-.83.67-1.5,1.5-1.5s1.5.67,1.5,1.5v8c0,.83-.67,1.5-1.5,1.5Z"/><path class="cls-1" d="m437.69,31c-.83,0-1.5-.67-1.5-1.5v-8c0-.83.67-1.5,1.5-1.5s1.5.67,1.5,1.5v8c0,.83-.67,1.5-1.5,1.5Z"/><path class="cls-1" d="m437.69,45c-.83,0-1.5-.67-1.5-1.5v-8c0-.83.67-1.5,1.5-1.5s1.5.67,1.5,1.5v8c0,.83-.67,1.5-1.5,1.5Z"/></g></svg>